<?xml version="1.0" encoding="UTF-8"?>
<svg id="Layer_2" data-name="Layer 2" xmlns="http://www.w3.org/2000/svg" viewBox="0 0 21.725708 21.725586">
  <defs>
    <style>
      .cls-1 {
        fill: #fff;
      }
    </style>
  </defs>
  <g id="Layer_1-2" data-name="Layer 1">
    <path class="cls-1" d="m0,0v21.725586h21.725708V0H0Zm4.366333,7.358398c0-.826172.667114-1.49707,1.493164-1.501953h10.012512c.800049.040039,1.427979.700684,1.427002,1.501953.00769.021484.00769.04541,0,.066895l-6.040588,3.795898c-.240173.149414-.544312.149414-.784485,0l-6.107605-3.795898c-.00769-.021484-.00769-.04541,0-.066895Zm12.99884,7.008789c0,.826172-.667114,1.49707-1.493164,1.501953H5.859497c-.81311-.022949-1.460388-.688477-1.460083-1.501953v-4.739258c-.000061-.089355.047791-.171875.125366-.216797.080017-.045898.178589-.045898.258606,0l4.8974,3.120605c.723877.457031,1.646057.457031,2.369934,0l4.8974-3.128906c.080017-.046387.178589-.046387.258606,0,.090454.035156.152222.119629.158447.216797v4.747559Z"/>
  </g>
</svg>