<?xml version="1.0" standalone="no"?>
<!DOCTYPE svg PUBLIC "-//W3C//DTD SVG 20010904//EN"
 "http://www.w3.org/TR/2001/REC-SVG-20010904/DTD/svg10.dtd">
<svg version="1.0" xmlns="http://www.w3.org/2000/svg"
 width="680.000000pt" height="383.000000pt" viewBox="0 0 680.000000 383.000000"
 preserveAspectRatio="xMidYMid meet">

<g transform="translate(0.000000,383.000000) scale(0.100000,-0.100000)"
fill="#000000" stroke="none">
<path d="M0 3769 l0 -61 76 4 c41 2 78 8 82 14 9 14 242 28 242 14 0 -5 -18
-10 -40 -10 -22 0 -40 -4 -40 -10 0 -6 33 -10 79 -10 54 0 81 -4 85 -12 5 -10
7 -10 12 0 4 8 29 12 75 12 67 0 69 -1 69 -24 0 -19 -4 -24 -20 -21 -14 3 -20
-2 -20 -15 0 -18 5 -19 60 -13 59 6 60 6 60 -20 0 -14 -6 -27 -12 -30 -8 -2
-9 -8 -4 -13 5 -5 11 -4 13 4 6 17 38 15 53 -3 7 -8 19 -15 27 -15 8 0 28 -8
44 -17 26 -15 31 -16 39 -3 7 12 14 11 45 -6 31 -16 33 -19 15 -22 -17 -3 -19
-6 -9 -18 6 -8 17 -14 25 -14 18 0 44 -40 44 -67 0 -17 6 -23 21 -23 17 0 20
-5 17 -24 -4 -18 -1 -22 13 -19 10 3 30 -4 45 -16 15 -12 35 -21 45 -21 11 0
19 -7 19 -15 0 -19 34 -54 77 -78 30 -16 32 -16 36 0 2 10 4 -1 4 -24 1 -24
-3 -43 -8 -43 -5 0 -9 5 -9 10 0 6 -4 10 -10 10 -18 0 -11 -35 10 -50 11 -8
20 -20 20 -26 0 -6 9 -14 20 -17 13 -3 20 0 20 8 0 11 6 10 30 -3 16 -9 30
-23 30 -30 0 -12 43 -62 53 -62 3 0 7 9 10 20 9 36 24 21 29 -29 3 -27 14 -62
26 -79 12 -16 22 -39 22 -50 0 -11 8 -22 20 -25 14 -3 20 -14 20 -31 0 -14 5
-26 10 -26 6 0 10 -9 10 -20 0 -45 22 -120 36 -120 9 0 14 -12 15 -32 l2 -33
7 35 7 35 2 -42 c1 -43 8 -49 49 -44 8 1 12 -12 12 -39 0 -22 5 -40 10 -40 6
0 10 -16 10 -35 0 -24 -5 -35 -15 -35 -10 0 -15 11 -15 35 0 19 -5 35 -11 35
-6 0 -9 -17 -7 -42 2 -35 6 -42 21 -40 9 2 17 -2 17 -8 0 -6 -5 -8 -10 -5 -6
3 -10 0 -10 -7 0 -10 -2 -10 -9 1 -6 9 -11 10 -15 2 -4 -6 -3 -11 3 -11 5 0
12 -8 14 -17 4 -16 5 -16 6 -1 2 26 33 26 61 1 25 -23 25 -23 34 -3 5 11 13
20 19 20 5 0 6 7 3 16 -3 9 -2 12 5 9 12 -8 1 -47 -18 -58 -7 -5 -11 -13 -7
-19 4 -6 -1 -6 -14 1 -11 6 -23 16 -25 23 -3 8 -6 6 -6 -4 -1 -15 -10 -18 -51
-18 -60 0 -65 1 -64 17 2 19 -13 6 -19 -16 -4 -15 -1 -18 12 -13 14 5 14 4 2
-11 -12 -15 -12 -17 3 -11 9 3 16 10 16 14 0 4 29 8 64 9 49 1 65 -2 69 -14 4
-8 2 -15 -2 -15 -5 0 -11 5 -13 11 -2 7 -5 -14 -6 -45 l-1 -56 75 0 74 0 -2
30 c-2 29 -18 44 -18 18 0 -9 -3 -9 -9 1 -5 8 -19 12 -35 9 -15 -3 -26 -1 -26
6 0 6 -5 4 -10 -4 -17 -26 -10 41 9 82 13 30 21 36 43 35 25 -2 26 -3 13 -33
l-13 -32 39 -6 c44 -7 53 -20 67 -93 l9 -51 -162 -2 c-137 -1 -165 2 -179 15
-20 20 -30 58 -23 85 3 11 2 20 -2 20 -5 0 -8 21 -7 47 1 45 -1 48 -29 54 -16
4 -22 7 -12 8 31 2 18 18 -15 18 -18 0 -27 -2 -20 -5 6 -2 12 -10 12 -18 0 -8
10 -14 25 -14 14 0 25 -6 26 -12 0 -7 1 -55 3 -105 2 -88 1 -93 -19 -93 -12
-1 -5 -7 20 -17 35 -14 66 -20 114 -22 8 -1 11 -4 8 -8 -4 -3 -2 -12 4 -20 9
-10 8 -18 -5 -31 -9 -10 -16 -26 -16 -35 0 -9 -4 -17 -10 -17 -5 0 -10 11 -10
25 0 14 5 25 10 25 15 0 12 19 -5 36 -8 9 -25 13 -37 11 -20 -4 -20 -4 -3 -6
18 -1 20 -7 17 -46 -2 -25 -8 -45 -13 -45 -5 0 -9 -18 -9 -41 0 -32 -4 -42
-20 -46 -32 -8 -26 -43 8 -44 l27 -1 -30 -8 c-16 -4 -66 -9 -110 -11 -113 -5
1777 -15 2271 -11 l410 2 18 43 c10 23 21 51 26 62 77 178 78 180 58 188 -7 3
-3 6 10 6 27 1 27 -7 2 -61 -26 -58 -100 -230 -100 -233 0 -13 118 30 300 108
14 5 28 10 33 9 4 -1 7 3 7 8 0 6 -5 10 -11 10 -13 0 -38 29 -39 44 0 4 9 -2
20 -15 26 -32 25 -15 -1 27 -23 39 -26 40 -48 19 -32 -30 -86 -69 -74 -54 7 9
9 20 5 24 -4 5 -2 6 3 2 12 -6 51 20 42 29 -4 4 -15 1 -24 -7 -16 -12 -17 -12
-7 1 7 8 11 33 9 55 l-3 40 15 -43 c8 -24 20 -41 27 -39 12 4 13 32 2 58 -4
10 -2 16 7 16 8 0 14 -7 13 -16 -1 -9 6 -15 16 -15 10 1 15 -3 12 -8 -7 -11
35 -108 46 -108 4 0 19 41 34 90 15 51 31 88 36 85 6 -4 6 -14 -2 -28 -6 -12
-19 -47 -28 -77 -10 -30 -21 -63 -25 -72 -5 -13 -2 -18 11 -19 11 -1 2 -5 -18
-10 -21 -5 -90 -31 -155 -59 -64 -27 -122 -50 -129 -50 -7 0 -15 -3 -17 -7 -3
-5 70 -7 161 -6 l167 2 97 103 c54 57 95 108 93 115 -2 7 2 10 11 6 7 -3 14
-7 14 -10 0 -4 -57 -67 -135 -147 -75 -77 -88 -71 148 -68 117 1 218 4 225 7
9 3 10 10 4 22 -10 20 -5 43 9 43 5 0 9 -6 9 -14 0 -19 10 -25 62 -36 l43 -9
-48 4 c-36 4 -47 2 -44 -8 2 -8 17 -10 43 -7 21 2 53 4 69 4 17 0 91 -1 165
-3 74 -1 298 -1 497 -1 l363 0 6 26 7 26 16 -26 16 -26 267 0 268 0 0 287 c0
258 -2 288 -17 306 -17 18 -17 19 0 32 13 10 17 27 17 84 0 47 -4 70 -11 69
-6 -2 -14 3 -16 10 -3 6 2 12 11 12 14 0 16 59 16 600 l0 600 -3400 0 -3400 0
0 -61z m4870 47 c0 -3 -4 -8 -10 -11 -5 -3 -10 -1 -10 4 0 6 5 11 10 11 6 0
10 -2 10 -4z m870 -26 c0 -5 -4 -10 -10 -10 -5 0 -10 5 -10 10 0 6 5 10 10 10
6 0 10 -4 10 -10z m-515 -10 c3 -5 1 -10 -4 -10 -6 0 -11 5 -11 10 0 6 2 10 4
10 3 0 8 -4 11 -10z m-4677 -7 c-10 -2 -28 -2 -40 0 -13 2 -5 4 17 4 22 1 32
-1 23 -4z m4867 -13 c3 -5 1 -10 -4 -10 -6 0 -11 5 -11 10 0 6 2 10 4 10 3 0
8 -4 11 -10z m-4782 -17 c-7 -2 -19 -2 -25 0 -7 3 -2 5 12 5 14 0 19 -2 13 -5z
m87 -57 c0 -12 -6 -13 -30 -5 -16 6 -30 13 -30 15 0 2 14 4 30 4 20 0 30 -5
30 -14z m5360 -1 c0 -8 -4 -15 -10 -15 -5 0 -10 7 -10 15 0 8 5 15 10 15 6 0
10 -7 10 -15z m-50 -15 c0 -5 -7 -10 -15 -10 -8 0 -15 5 -15 10 0 6 7 10 15
10 8 0 15 -4 15 -10z m-360 -10 c0 -5 -7 -10 -16 -10 -8 0 -12 5 -9 10 3 6 10
10 16 10 5 0 9 -4 9 -10z m-70 -100 c0 -5 -4 -10 -9 -10 -6 0 -13 5 -16 10 -3
6 1 10 9 10 9 0 16 -4 16 -10z m-130 -20 c0 -5 -2 -10 -4 -10 -3 0 -8 5 -11
10 -3 6 -1 10 4 10 6 0 11 -4 11 -10z m940 2 c0 -13 -12 -22 -22 -16 -10 6 -1
24 13 24 5 0 9 -4 9 -8z m-1122 -67 c1 -14 -3 -25 -8 -25 -11 0 -14 33 -3 43
9 9 8 10 11 -18z m-1558 -150 c0 -69 -3 -125 -7 -125 -10 1 -73 93 -73 106 0
16 64 144 72 144 4 0 8 -56 8 -125z m1249 78 c0 -25 -1 -26 -9 -8 -12 27 -12
35 0 35 6 0 10 -12 9 -27z m771 7 c0 -5 -4 -10 -10 -10 -5 0 -10 5 -10 10 0 6
5 10 10 10 6 0 10 -4 10 -10z m-625 -30 c3 -5 -1 -10 -9 -10 -9 0 -16 5 -16
10 0 6 4 10 9 10 6 0 13 -4 16 -10z m-4007 -12 c-7 -19 -38 -22 -38 -4 0 10 9
16 21 16 12 0 19 -5 17 -12z m4112 -28 c0 -5 -2 -10 -4 -10 -3 0 -8 5 -11 10
-3 6 -1 10 4 10 6 0 11 -4 11 -10z m90 -30 c0 -5 -4 -10 -10 -10 -5 0 -10 5
-10 10 0 6 5 10 10 10 6 0 10 -4 10 -10z m-1807 -279 c-2 -2 -4 -2 -6 0 -1 2
-16 22 -33 44 -17 22 -34 45 -38 52 -4 7 10 49 31 94 l38 81 5 -134 c3 -73 4
-135 3 -137z m1877 259 c0 -5 -4 -10 -10 -10 -5 0 -10 5 -10 10 0 6 5 10 10
10 6 0 10 -4 10 -10z m680 -46 c0 -8 -7 -14 -15 -14 -15 0 -21 21 -9 33 10 9
24 -2 24 -19z m-533 -27 c4 -8 17 -19 28 -26 19 -12 9 -10 -27 4 -13 5 -18 2
-19 -11 0 -15 -2 -15 -10 4 -14 36 9 60 28 29z m-682 -7 c3 -5 1 -10 -4 -10
-6 0 -11 5 -11 10 0 6 2 10 4 10 3 0 8 -4 11 -10z m1740 -31 c0 -7 -8 -15 -17
-17 -18 -3 -25 18 -11 32 10 10 28 1 28 -15z m-2867 -190 l-3 -72 -37 55 c-21
30 -38 59 -38 64 0 5 17 42 37 83 l38 74 3 -66 c2 -36 2 -98 0 -138z m1169
139 c-3 -8 -6 -5 -6 6 -1 11 2 17 5 13 3 -3 4 -12 1 -19z m-3584 5 c-7 -2 -19
-2 -25 0 -7 3 -2 5 12 5 14 0 19 -2 13 -5z m3387 3 c0 -11 -19 -15 -25 -6 -3
5 1 10 9 10 9 0 16 -2 16 -4z m948 -8 c-6 -18 -28 -21 -28 -4 0 9 7 16 16 16
9 0 14 -5 12 -12z m-4181 -14 c-3 -3 -12 -4 -19 -1 -8 3 -5 6 6 6 11 1 17 -2
13 -5z m1831 -130 l-3 -119 -42 53 -42 53 36 74 c21 41 41 71 45 67 5 -5 7
-62 6 -128z m2982 93 c0 -8 -3 -17 -7 -20 -9 -9 -34 13 -27 24 8 14 34 11 34
-4z m-1186 -12 c-4 -8 -8 -15 -10 -15 -2 0 -4 7 -4 15 0 8 4 15 10 15 5 0 7
-7 4 -15z m376 -45 c0 -5 -7 -10 -16 -10 -8 0 -12 5 -9 10 3 6 10 10 16 10 5
0 9 -4 9 -10z m28 -20 c-1 -25 -3 -28 -16 -18 -9 8 -10 14 -3 16 6 2 11 10 11
18 0 8 2 14 4 14 3 0 4 -13 4 -30z m-1986 -130 l-3 -110 -40 50 c-21 27 -39
54 -39 60 0 7 17 43 37 82 45 85 49 77 45 -82z m1562 134 c4 -10 1 -14 -6 -12
-15 5 -23 28 -10 28 5 0 13 -7 16 -16z m371 -52 c-8 -8 -13 0 -20 33 l-7 30
16 -29 c9 -16 14 -31 11 -34z m474 37 c13 -11 22 -22 19 -24 -7 -7 -68 25 -68
36 0 15 23 10 49 -12z m622 -16 c-8 -15 -10 -15 -11 -2 0 17 10 32 18 25 2 -3
-1 -13 -7 -23z m-1404 -45 c-9 -6 -9 -8 1 -8 6 0 12 -4 12 -10 0 -19 -15 -10
-31 18 -16 29 -16 29 7 18 15 -7 19 -13 11 -18z m366 -18 c7 0 5 -5 -4 -10 -9
-5 -28 -6 -45 0 -26 7 -26 8 -6 9 16 1 26 9 30 24 l7 22 3 -22 c2 -13 9 -23
15 -23z m-91 -18 c-4 -26 12 -36 28 -17 7 8 17 15 23 15 6 0 7 -3 4 -7 -4 -3
1 -12 11 -20 16 -13 15 -14 -5 -8 -35 10 -27 -9 15 -33 22 -13 30 -22 20 -22
-11 0 -15 -5 -12 -15 4 -8 3 -15 -1 -15 -9 0 -35 27 -30 32 2 2 -5 9 -15 16
-18 11 -20 9 -21 -10 0 -14 -7 -3 -15 25 -11 36 -19 47 -30 43 -8 -3 -12 -2
-9 3 3 5 1 12 -5 16 -20 12 -9 26 18 22 21 -3 26 -9 24 -25z m-1682 -107 c0
-69 -3 -125 -7 -125 -11 1 -73 94 -73 109 0 17 63 140 73 141 4 0 7 -56 7
-125z m2748 103 c-6 -18 -28 -21 -28 -4 0 9 7 16 16 16 9 0 14 -5 12 -12z
m-408 -28 c0 -5 -4 -10 -10 -10 -5 0 -10 5 -10 10 0 6 5 10 10 10 6 0 10 -4
10 -10z m234 -6 c10 -26 7 -34 -13 -34 -26 0 -44 23 -29 38 17 17 35 15 42 -4z
m216 -15 c-7 -11 -14 -18 -17 -15 -8 8 5 36 17 36 7 0 7 -6 0 -21z m-1379
-118 c45 -90 64 -120 71 -110 6 10 7 7 3 -8 -4 -14 -2 -23 4 -23 6 0 11 -4 11
-10 0 -5 -6 -10 -12 -10 -7 1 -39 55 -72 121 -32 66 -65 127 -73 134 -8 8 -11
20 -8 26 9 14 6 20 76 -120z m656 107 c-3 -8 -6 -5 -6 6 -1 11 2 17 5 13 3 -3
4 -12 1 -19z m-1107 -8 c0 -5 -4 -10 -10 -10 -5 0 -10 5 -10 10 0 6 5 10 10
10 6 0 10 -4 10 -10z m876 -5 c10 -8 15 -14 9 -14 -5 0 -19 6 -29 14 -11 8
-15 15 -10 15 6 0 19 -7 30 -15z m-549 -1 c-3 -3 -12 -4 -19 -1 -8 3 -5 6 6 6
11 1 17 -2 13 -5z m-44 -11 c-7 -2 -19 -2 -25 0 -7 3 -2 5 12 5 14 0 19 -2 13
-5z m-58 -13 c-27 -12 -43 -12 -25 0 8 5 22 9 30 9 10 0 8 -3 -5 -9z m654 -1
c17 -6 31 -15 31 -20 0 -13 -5 -11 -42 11 -37 23 -35 25 11 9z m1191 -4 c0 -8
-7 -15 -15 -15 -16 0 -20 12 -8 23 11 12 23 8 23 -8z m-245 -19 c0 -25 -16
-30 -40 -11 -17 13 -18 16 -5 25 22 15 45 8 45 -14z m-1700 4 c-27 -12 -43
-12 -25 0 8 5 22 9 30 9 10 0 8 -3 -5 -9z m630 -9 c9 -23 -3 -26 -25 -6 -11
10 -23 15 -27 11 -4 -4 -3 -10 3 -14 41 -28 57 -42 52 -47 -2 -3 -14 3 -26 12
-11 10 -28 23 -38 29 -10 5 -14 15 -10 22 9 15 64 10 71 -7z m115 -22 c0 -14
-16 -11 -29 5 -10 12 -8 13 8 9 12 -3 21 -9 21 -14z m409 -14 c11 -20 27 -38
36 -41 8 -4 15 -10 15 -15 0 -5 31 -41 68 -81 38 -40 87 -93 108 -117 l40 -44
29 27 c31 29 55 36 34 9 -13 -15 -10 -16 29 -10 37 7 42 5 42 -13 0 -21 -35
-46 -44 -31 -3 5 -15 7 -26 4 -26 -7 -19 -36 19 -77 73 -79 113 -116 126 -116
19 0 20 -44 1 -59 -8 -7 -16 -35 -19 -64 -7 -72 -27 -160 -39 -172 -6 -7 -8 2
-4 25 4 19 8 56 10 82 3 25 9 56 16 67 13 25 6 96 -12 119 -28 38 -114 122
-125 122 -6 0 -15 12 -21 28 -5 15 -38 57 -73 93 -35 36 -102 106 -149 157
-47 50 -91 92 -97 92 -14 0 -16 10 -7 34 9 24 20 19 43 -19z m-1249 21 c0 -6
-102 -27 -107 -22 -3 2 15 9 39 14 51 12 68 14 68 8z m780 -15 c0 -9 94 -51
114 -51 6 0 22 -10 36 -23 29 -26 73 -47 100 -47 26 0 33 -15 15 -34 -8 -8
-12 -17 -7 -20 10 -6 21 2 47 33 18 21 18 24 3 18 -20 -7 -22 0 -9 22 5 8 16
11 25 8 8 -3 18 -3 20 2 5 8 -56 41 -77 41 -11 0 -67 46 -67 54 0 9 40 -7 51
-20 6 -8 17 -14 23 -14 6 -1 29 -9 51 -20 22 -11 46 -19 53 -20 14 0 17 -20 3
-20 -5 0 -18 -20 -30 -45 -12 -25 -23 -45 -26 -45 -3 0 -1 9 5 20 8 15 8 18
-3 14 -17 -6 -41 -54 -32 -63 3 -3 10 1 15 9 5 8 11 12 14 9 7 -7 -9 -65 -17
-62 -15 5 -56 -48 -51 -65 5 -13 4 -14 -4 -3 -8 12 -21 4 -67 -40 -104 -98
-155 -151 -155 -161 0 -5 -4 -7 -9 -4 -5 4 -23 -5 -39 -19 -16 -14 -35 -25
-41 -25 -6 0 -11 -4 -11 -10 0 -5 -6 -10 -12 -10 -13 0 -201 -109 -226 -130
-7 -7 -18 -10 -24 -8 -9 3 76 59 185 120 l30 17 -59 3 -59 3 0 104 c0 100 1
104 23 107 24 4 24 4 22 -80 -1 -39 2 -56 9 -51 6 3 11 1 11 -4 0 -6 -4 -11
-10 -11 -5 0 -10 -7 -10 -15 0 -10 11 -15 35 -15 l34 0 3 58 c3 49 6 57 23 57
18 0 20 -8 23 -63 l3 -62 40 32 c28 23 39 38 35 51 -4 16 -1 18 21 13 13 -4
22 -3 19 2 -2 4 7 17 22 28 45 33 115 95 169 150 42 43 50 54 38 64 -10 9 -15
7 -19 -8 -8 -25 -46 -60 -46 -43 0 7 10 27 22 43 l22 31 -27 23 c-15 13 -27
27 -27 31 0 10 -113 83 -128 83 -7 0 -12 3 -12 8 0 4 -18 16 -41 26 -45 22
-58 36 -35 36 9 0 16 -4 16 -9z m91 -28 c13 -15 12 -15 -8 -4 -24 12 -29 21
-14 21 5 0 15 -7 22 -17z m676 11 c-3 -3 -12 -4 -19 -1 -8 3 -5 6 6 6 11 1 17
-2 13 -5z m-4627 -34 c0 -19 -5 -30 -14 -30 -8 0 -16 13 -18 30 -4 24 -1 30
14 30 13 0 18 -8 18 -30z m2897 24 c-3 -3 -12 -4 -19 -1 -8 3 -5 6 6 6 11 1
17 -2 13 -5z m-60 -16 c-31 -11 -30 -19 3 -93 25 -54 91 -204 130 -293 42 -98
80 -142 80 -92 0 15 7 20 26 20 25 0 26 -1 20 -44 -6 -41 -5 -46 19 -62 20
-13 31 -15 44 -7 16 10 19 29 20 166 1 60 3 67 21 67 18 0 20 -7 20 -85 l0
-85 35 0 35 0 0 54 c0 45 3 55 19 59 28 7 31 1 31 -60 0 -52 0 -53 30 -53 23
0 30 5 30 19 0 11 7 26 15 34 8 8 12 17 9 19 -3 3 8 3 23 0 35 -6 63 -30 63
-54 0 -10 7 -18 16 -18 14 0 15 7 11 37 -8 46 -19 53 -84 53 -39 0 -53 4 -53
14 0 8 8 17 18 20 30 10 146 7 137 -3 -3 -2 2 -12 11 -22 9 -10 18 -44 21 -78
l6 -61 -187 0 c-199 0 -190 2 -189 -47 0 -6 -5 -9 -12 -7 -25 10 -25 -15 0
-34 14 -11 25 -23 25 -27 0 -4 -16 5 -35 19 -19 15 -43 26 -53 25 -56 -5 -102
30 -102 79 0 32 -28 52 -41 30 -4 -7 -11 -9 -15 -5 -4 3 -15 -3 -25 -14 -10
-11 -26 -19 -36 -17 -16 3 -18 16 -21 106 -2 86 0 102 13 102 8 0 15 3 15 6 0
11 -84 200 -117 262 -19 34 -32 66 -29 70 2 4 21 8 43 9 37 2 37 1 10 -9z
m620 -50 c-3 -7 -5 -2 -5 12 0 14 2 19 5 13 2 -7 2 -19 0 -25z m453 8 c14 -18
14 -18 -7 -6 -12 8 -19 18 -16 23 3 4 6 7 7 5 1 -2 8 -12 16 -22z m863 -14
c19 -20 13 -32 -14 -32 -10 0 -22 -8 -28 -17 -14 -25 -19 -14 -13 30 5 42 27
50 55 19z m-893 -2 c-10 -6 -11 -10 -2 -10 6 0 12 -4 12 -10 0 -14 -27 -13
-36 1 -7 11 12 29 31 29 6 0 3 -5 -5 -10z m945 -10 c3 -5 -1 -10 -10 -10 -9 0
-13 5 -10 10 3 6 8 10 10 10 2 0 7 -4 10 -10z m-1650 -20 c16 0 17 -2 6 -9 -9
-6 -22 -6 -32 -1 -9 5 -19 7 -22 4 -3 -3 -8 0 -13 7 -5 9 -1 10 17 6 13 -4 33
-7 44 -7z m651 -16 c-26 -19 -36 -18 -36 4 0 13 2 14 9 4 6 -10 10 -10 21 3 7
8 16 13 19 9 3 -3 -3 -12 -13 -20z m1107 19 c-7 -2 -19 -2 -25 0 -7 3 -2 5 12
5 14 0 19 -2 13 -5z m-1653 -23 l25 -8 -25 -1 c-14 0 -32 4 -40 9 -13 9 -13
10 0 9 8 -1 26 -5 40 -9z m750 -9 c0 -16 -14 -20 -27 -10 -19 17 -16 28 7 22
11 -3 20 -9 20 -12z m-700 -11 c0 -5 -4 -10 -10 -10 -5 0 -10 5 -10 10 0 6 5
10 10 10 6 0 10 -4 10 -10z m75 -10 c3 -6 -1 -7 -9 -4 -18 7 -21 14 -7 14 6 0
13 -4 16 -10z m1299 2 c-6 -4 -15 -17 -19 -30 -4 -13 -9 -22 -11 -19 -9 8 16
57 28 57 9 0 10 -3 2 -8z m-1254 -6 c0 -3 -4 -8 -10 -11 -5 -3 -10 -1 -10 4 0
6 5 11 10 11 6 0 10 -2 10 -4z m35 -36 c7 -41 34 -66 59 -57 7 3 13 -1 13 -9
0 -17 1 -17 -39 0 -53 23 -72 29 -85 27 -7 -1 -13 3 -13 9 0 13 16 13 41 -1
17 -9 19 -7 15 13 -2 13 -7 31 -11 41 -4 9 -3 17 3 17 6 0 13 -18 17 -40z
m121 -6 c-3 -7 -1 -16 4 -19 6 -4 10 -14 10 -23 -1 -12 -5 -10 -15 8 -17 30
-20 64 -4 55 6 -4 8 -13 5 -21z m1304 15 c0 -5 -4 -8 -9 -4 -5 3 -12 1 -16 -5
-8 -13 10 -13 58 1 22 6 41 8 44 5 9 -8 -47 -28 -94 -33 -37 -4 -43 -2 -43 14
0 11 3 23 7 26 10 11 53 8 53 -4z m-1065 -29 c-3 -5 -10 -10 -16 -10 -5 0 -9
5 -9 10 0 6 7 10 16 10 8 0 12 -4 9 -10z m-35 -10 c0 -5 -5 -10 -11 -10 -5 0
-7 5 -4 10 3 6 8 10 11 10 2 0 4 -4 4 -10z m1027 -6 c-3 -3 -12 -4 -19 -1 -8
3 -5 6 6 6 11 1 17 -2 13 -5z m203 -37 c9 -3 3 -6 -12 -6 -20 -1 -28 4 -28 15
0 12 4 14 13 7 6 -6 19 -13 27 -16z m-1356 -12 c-4 -8 -14 -15 -23 -16 -11 0
-9 -3 7 -9 27 -12 29 -30 2 -31 -11 -1 -28 -2 -37 -3 -26 -2 -31 60 -6 67 40
10 62 7 57 -8z m-2994 -53 c3 -13 10 -23 15 -22 6 0 11 -10 13 -22 3 -22 0
-23 -47 -20 -42 3 -50 7 -54 27 -2 14 1 23 7 22 5 -1 15 8 21 21 12 28 37 25
45 -6z m1360 2 c0 -10 -8 -14 -22 -12 -27 4 -35 25 -11 30 23 6 33 0 33 -18z
m2790 16 c0 -5 -5 -10 -11 -10 -5 0 -7 5 -4 10 3 6 8 10 11 10 2 0 4 -4 4 -10z
m-4690 -35 c0 -5 -5 -3 -10 5 -5 8 -10 20 -10 25 0 6 5 3 10 -5 5 -8 10 -19
10 -25z m130 23 c0 -10 -19 -9 -45 2 -16 7 -14 8 12 7 18 -1 33 -5 33 -9z
m2480 -8 c0 -11 5 -20 10 -20 6 0 10 -9 10 -20 0 -11 -6 -20 -14 -20 -9 0 -12
-8 -8 -25 3 -20 10 -25 33 -25 28 0 29 2 29 46 0 41 2 45 22 42 20 -3 23 -10
26 -53 2 -27 8 -51 13 -53 5 -2 9 -8 9 -13 0 -6 -4 -8 -9 -5 -11 7 -23 -22
-15 -35 3 -5 2 -18 -1 -29 -6 -19 -15 -20 -200 -20 -156 0 -194 3 -198 14 -7
18 1 26 25 26 25 0 14 16 -22 35 -28 14 -29 14 -28 -7 3 -70 5 -68 -77 -68
-91 0 -130 17 -140 60 -9 40 2 70 26 70 15 0 19 -7 19 -35 0 -42 20 -55 85
-55 l47 0 -2 38 c-4 73 -2 81 20 75 12 -3 20 -14 20 -27 0 -18 42 -56 62 -56
3 0 4 19 4 43 -1 48 9 68 30 60 10 -4 14 -23 14 -69 0 -60 2 -64 23 -64 21 0
22 3 19 85 l-4 85 26 0 c26 0 26 0 26 -85 l0 -85 35 0 35 0 0 55 c0 42 3 55
15 55 11 0 15 10 14 38 -2 30 -3 32 -6 10 -3 -20 -10 -28 -24 -28 -26 0 -37
30 -16 42 10 5 17 16 17 23 0 9 10 15 25 15 18 0 25 -5 25 -20z m1230 -10
c-32 -28 -38 -25 -10 5 13 14 26 23 28 20 3 -3 -5 -14 -18 -25z m-1638 5 c10
-13 0 -25 -23 -25 -18 0 -26 20 -13 33 9 8 27 4 36 -8z m1406 -34 c3 -16 -2
-21 -17 -21 -12 0 -21 6 -22 13 0 6 -2 20 -4 29 -2 13 1 15 18 9 12 -5 23 -18
25 -30z m-3246 15 c-10 -17 -7 -146 3 -146 6 0 3 -5 -5 -10 -11 -7 -7 -10 18
-10 31 0 32 1 32 46 0 41 2 45 23 42 18 -2 23 -10 25 -45 2 -29 8 -43 18 -43
10 0 14 13 14 49 0 38 4 50 18 53 31 8 37 -1 34 -52 -4 -46 -2 -50 18 -50 21
0 22 4 18 54 -4 50 -3 55 18 59 27 5 34 -8 34 -69 0 -40 2 -44 25 -44 23 0 25
4 25 43 0 60 10 70 66 70 56 0 84 -26 84 -79 0 -30 3 -34 25 -34 24 0 25 2 26
68 1 90 3 102 12 102 38 1 37 2 37 -105 l0 -105 -304 0 c-167 1 -315 -2 -329
-5 -13 -4 -34 -20 -46 -36 -25 -34 -71 -41 -71 -10 0 10 9 21 20 24 18 5 20
14 20 97 0 80 2 91 16 86 9 -3 20 -6 25 -6 5 0 9 -34 9 -75 0 -59 3 -75 14
-75 18 0 23 54 16 150 l-5 65 37 0 c20 0 33 -4 30 -9z m1163 -32 c-15 -24 -15
-24 15 -24 49 0 80 -38 80 -100 l0 -50 -125 0 -125 0 0 105 0 105 25 0 c25 0
25 -1 25 -85 l0 -85 75 0 75 0 0 30 c0 29 -2 30 -45 30 -34 0 -47 5 -55 19
-14 26 -13 31 10 69 17 28 23 31 41 22 19 -11 19 -13 4 -36z m345 15 c0 -12
-7 -19 -20 -19 -19 0 -28 28 -14 43 11 11 34 -5 34 -24z m1792 16 c15 -20 7
-35 -17 -35 -20 0 -25 5 -25 25 0 19 5 25 18 23 9 -2 20 -7 24 -13z m1260 -4
c12 -12 18 -26 15 -35 -8 -20 -27 -21 -27 -2 0 7 -7 19 -15 26 -8 7 -15 16
-15 21 0 15 20 10 42 -10z m-4806 -7 c-9 -8 -16 -20 -16 -26 0 -6 -3 -9 -6 -6
-8 9 14 48 27 48 6 0 3 -7 -5 -16z m904 -89 l0 -105 -25 0 -25 0 0 105 0 105
25 0 25 0 0 -105z m908 88 c-2 -10 -13 -19 -26 -21 -17 -3 -22 2 -22 17 0 16
6 21 26 21 19 0 25 -5 22 -17z m-713 -19 c0 -10 -8 -20 -18 -22 -22 -4 -35 27
-16 39 20 12 34 5 34 -17z m55 0 c0 -15 -7 -23 -23 -26 -20 -4 -23 -1 -19 22
5 33 42 37 42 4z m899 17 c17 -11 7 -41 -13 -41 -19 0 -28 14 -20 34 7 18 13
19 33 7z m61 -16 c0 -18 -5 -25 -20 -25 -25 0 -27 37 -2 43 9 3 18 5 20 6 1 0
2 -10 2 -24z m1495 -15 c3 -5 1 -10 -4 -10 -6 0 -11 5 -11 10 0 6 2 10 4 10 3
0 8 -4 11 -10z m-1910 -69 c0 -40 3 -51 15 -49 10 2 16 18 18 51 3 42 5 47 28
47 22 0 24 -4 24 -50 0 -44 2 -50 21 -50 20 0 21 3 15 55 -6 53 -5 55 18 55
22 0 25 -5 31 -54 12 -93 15 -91 -108 -93 l-107 -2 0 39 c0 37 -2 40 -28 40
-28 0 -29 -1 -28 -54 0 -40 -5 -60 -18 -75 -25 -28 -66 -28 -66 -1 0 11 6 20
14 20 20 0 26 23 26 106 0 73 0 74 26 74 14 0 23 -4 19 -10 -4 -6 6 -10 23
-10 18 0 32 6 36 15 4 12 10 13 23 6 14 -7 18 -22 18 -60z m-485 -16 l0 -75
-77 0 c-88 0 -124 14 -137 51 -13 37 0 79 24 79 16 0 20 -7 20 -35 0 -41 20
-55 79 -55 l41 0 0 55 c0 52 1 55 25 55 24 0 25 -2 25 -75z m2340 -6 c0 -5 -4
-9 -8 -9 -5 0 -9 7 -9 15 0 8 4 12 9 9 4 -3 8 -9 8 -15z m233 -32 c-4 -30 -9
-45 -15 -39 -6 6 -5 25 3 51 15 52 19 49 12 -12z m-4079 -13 c3 -8 2 -12 -4
-9 -6 3 -10 10 -10 16 0 14 7 11 14 -7z m177 -34 c76 0 139 -3 139 -7 0 -14
-290 -7 -303 7 -10 10 -8 12 6 6 10 -3 81 -6 158 -6z m2757 -14 c-7 -8 -15
-12 -17 -11 -5 6 10 25 20 25 5 0 4 -6 -3 -14z m442 -17 c0 -29 -40 -25 -41 4
l-2 22 -4 -23 c-3 -17 -10 -22 -26 -20 -30 4 -28 31 3 38 39 9 70 0 70 -21z
m-3033 -21 c-3 -7 -5 -2 -5 12 0 14 2 19 5 13 2 -7 2 -19 0 -25z m2453 -10 c0
-4 -16 2 -35 13 -19 12 -35 23 -35 25 0 2 16 -4 35 -13 19 -9 35 -20 35 -25z
m1958 1 c-2 -6 -8 -10 -13 -10 -5 0 -11 4 -13 10 -2 6 4 11 13 11 9 0 15 -5
13 -11z m-758 -59 c0 -13 -5 -18 -15 -14 -8 3 -29 1 -47 -5 -30 -10 -31 -9
-14 4 11 8 26 15 33 15 7 0 13 5 13 10 0 6 7 10 15 10 8 0 15 -9 15 -20z
m-632 -68 c35 -29 57 -52 49 -52 -8 0 -17 7 -21 15 -3 8 -12 15 -21 15 -8 0
-15 4 -15 8 0 5 -20 23 -45 42 -25 19 -45 38 -45 43 0 6 8 3 18 -5 9 -8 45
-38 80 -66z m532 40 c0 -5 -44 -24 -97 -42 -54 -19 -103 -40 -109 -48 -9 -13
-12 -12 -17 2 -4 10 -1 18 6 20 16 4 132 45 177 62 43 16 40 16 40 6z m-1177
-55 c-21 -17 -51 -45 -66 -61 -16 -15 -31 -26 -34 -22 -3 3 9 18 28 33 18 15
47 40 63 56 17 15 34 27 39 27 5 0 -8 -15 -30 -33z m297 23 c0 -5 -2 -10 -4
-10 -3 0 -8 5 -11 10 -3 6 -1 10 4 10 6 0 11 -4 11 -10z m1060 -69 c0 -3 -11
7 -25 23 -14 16 -25 34 -25 39 0 6 11 -4 25 -23 14 -19 25 -36 25 -39z"/>
<path d="M4590 2272 c0 -29 5 -44 15 -49 25 -9 27 1 5 48 l-20 44 0 -43z"/>
<path d="M4590 2190 c0 -18 2 -19 20 -8 11 7 20 16 20 20 0 5 -9 8 -20 8 -13
0 -20 -7 -20 -20z"/>
<path d="M5080 2195 c0 -8 7 -15 15 -15 8 0 15 7 15 15 0 8 -7 15 -15 15 -8 0
-15 -7 -15 -15z"/>
<path d="M4422 2215 c29 -44 38 -44 38 0 0 32 -2 35 -30 35 l-30 0 22 -35z"/>
<path d="M4400 2202 c0 -14 6 -22 16 -22 14 0 15 3 3 18 -7 9 -15 19 -16 21
-2 2 -3 -5 -3 -17z"/>
<path d="M2520 2216 c0 -32 3 -36 26 -36 23 0 25 3 22 33 -2 24 -8 33 -25 35
-20 3 -23 -1 -23 -32z"/>
<path d="M540 3640 c0 -5 5 -10 10 -10 6 0 10 5 10 10 0 6 -4 10 -10 10 -5 0
-10 -4 -10 -10z"/>
<path d="M800 3520 c0 -5 8 -10 19 -10 10 0 24 -7 31 -15 7 -8 21 -15 32 -15
17 0 18 2 4 15 -8 8 -22 15 -30 15 -9 0 -16 5 -16 10 0 6 -9 10 -20 10 -11 0
-20 -4 -20 -10z"/>
<path d="M1200 3100 c0 -5 5 -10 10 -10 6 0 10 5 10 10 0 6 -4 10 -10 10 -5 0
-10 -4 -10 -10z"/>
<path d="M1334 3015 c8 -8 22 -15 31 -15 15 0 15 2 1 15 -8 8 -22 15 -31 15
-15 0 -15 -2 -1 -15z"/>
<path d="M1405 2940 c3 -5 12 -10 20 -10 8 0 17 5 20 10 4 6 -5 10 -20 10 -15
0 -24 -4 -20 -10z"/>
<path d="M1485 2860 c3 -5 8 -10 11 -10 2 0 4 5 4 10 0 6 -5 10 -11 10 -5 0
-7 -4 -4 -10z"/>
<path d="M1525 2800 c3 -5 8 -10 11 -10 2 0 4 5 4 10 0 6 -5 10 -11 10 -5 0
-7 -4 -4 -10z"/>
<path d="M1634 2385 c-4 -8 -11 -12 -17 -8 -6 4 -7 1 -3 -6 6 -9 13 -8 27 5
19 17 20 17 13 -1 -7 -17 -6 -18 8 -5 9 8 14 18 11 23 -8 12 -33 8 -39 -8z"/>
<path d="M1527 2303 c7 -52 13 -55 11 -5 -1 23 -5 42 -9 42 -4 0 -5 -17 -2
-37z"/>
<path d="M1685 2240 c14 -6 16 -9 5 -10 -8 -2 -18 -2 -22 -1 -9 1 -4 -27 7
-36 4 -4 5 -2 1 5 -4 6 -2 12 3 12 6 0 11 -7 11 -15 0 -8 5 -15 10 -15 6 0 10
16 10 35 0 30 -3 35 -22 34 -22 0 -22 -1 -3 -9z"/>
<path d="M1550 2199 c0 -5 9 -9 20 -9 11 0 20 4 20 8 0 4 -9 8 -20 9 -11 1
-20 -2 -20 -8z"/>
<path d="M1529 2157 c-5 -36 -3 -39 32 -56 39 -19 72 -14 46 8 -8 6 -21 9 -28
6 -23 -8 -37 8 -41 45 l-3 35 -6 -38z"/>
<path d="M1528 2073 c7 -3 16 -2 19 1 4 3 -2 6 -13 5 -11 0 -14 -3 -6 -6z"/>
<path d="M1560 1950 c0 -33 3 -40 20 -40 17 0 20 7 20 40 0 33 -3 40 -20 40
-17 0 -20 -7 -20 -40z"/>
<path d="M1478 1903 c7 -3 16 -2 19 1 4 3 -2 6 -13 5 -11 0 -14 -3 -6 -6z"/>
<path d="M4367 1763 c58 -7 83 -73 43 -113 -11 -11 -31 -20 -44 -20 -14 0 -28
-5 -32 -11 -4 -8 1 -9 16 -4 15 5 20 4 16 -4 -5 -7 3 -11 22 -11 20 0 32 -7
40 -22 7 -16 11 -18 11 -7 1 8 -8 25 -19 37 -14 14 -16 23 -9 28 25 15 49 -38
49 -108 0 -38 -3 -69 -7 -69 -28 -5 -63 -4 -63 2 0 15 -26 16 -40 1 -13 -14
-12 -15 2 -9 12 4 15 2 11 -8 -3 -8 -9 -12 -14 -9 -5 3 -9 0 -9 -5 0 -14 6
-14 32 0 15 8 19 8 13 0 -4 -8 1 -10 18 -7 98 18 167 129 137 221 -25 77 -92
127 -167 123 -37 -1 -37 -1 -6 -5z m143 -139 c0 -9 -5 -14 -12 -12 -18 6 -21
28 -4 28 9 0 16 -7 16 -16z"/>
<path d="M4368 1723 c10 -4 9 -8 -5 -19 -17 -13 -17 -13 2 -14 15 0 17 -2 6
-9 -8 -5 -9 -11 -3 -15 6 -3 17 1 26 10 19 19 5 54 -22 53 -11 0 -13 -2 -4 -6z"/>
<path d="M3557 1674 c-9 -15 -12 -152 -4 -160 28 -28 51 115 24 150 -8 10 -17
15 -20 10z"/>
<path d="M3740 1638 c-7 -16 -17 -28 -22 -28 -4 0 -8 -7 -8 -15 0 -8 5 -15 12
-15 9 0 9 -3 0 -12 -10 -10 -15 -10 -22 1 -6 11 -12 5 -25 -25 -9 -21 -26 -49
-37 -61 l-21 -23 20 0 c46 0 123 99 109 137 -4 9 -1 22 5 29 6 7 9 19 6 26 -3
8 -10 2 -17 -14z m-25 -98 c-3 -5 -12 -10 -18 -10 -7 0 -6 4 3 10 19 12 23 12
15 0z"/>
<path d="M2626 1608 c-9 -24 -36 -97 -61 -162 -24 -66 -42 -124 -38 -129 8
-13 18 7 54 109 17 49 41 117 55 151 27 69 28 73 15 73 -5 0 -16 -19 -25 -42z"/>
<path d="M3447 1644 c-9 -15 -7 -133 2 -139 11 -6 24 46 23 87 -1 31 -17 65
-25 52z"/>
<path d="M3697 1643 c-4 -3 -7 -15 -7 -26 0 -19 1 -19 20 3 11 13 20 25 20 27
0 6 -26 3 -33 -4z"/>
<path d="M3355 1566 c0 -65 11 -82 20 -33 8 42 4 79 -10 84 -6 2 -10 -20 -10
-51z"/>
<path d="M2027 1574 c-4 -4 -7 -58 -7 -121 l0 -113 25 0 c24 0 25 3 25 55 0
30 4 55 8 55 5 0 19 -23 32 -51 27 -57 51 -76 72 -56 10 11 19 11 42 2 38 -16
72 -8 96 22 19 24 19 24 30 4 12 -24 48 -28 56 -6 5 13 10 12 31 -5 35 -27 71
-26 82 3 7 17 5 23 -8 26 -20 4 -41 21 -41 32 0 5 16 9 35 9 33 0 37 4 56 46
23 54 16 70 -36 80 -52 9 -100 -19 -122 -72 -10 -24 -21 -44 -24 -44 -4 0 -14
20 -23 45 -14 36 -22 45 -42 45 -13 0 -24 -4 -24 -9 0 -4 -11 -6 -25 -3 -14 2
-36 -3 -50 -12 l-25 -16 0 45 c0 42 -2 46 -22 43 -21 -3 -23 -10 -26 -63 l-3
-60 -32 60 c-30 57 -60 79 -80 59z m501 -87 c3 -14 -4 -17 -32 -17 -41 0 -42
2 -20 25 20 20 48 16 52 -8z m-250 -57 c4 -36 -14 -56 -35 -38 -17 13 -17 65
0 71 22 10 32 1 35 -33z m-105 -20 c3 -11 1 -18 -4 -14 -5 3 -9 12 -9 20 0 20
7 17 13 -6z"/>
<path d="M2664 1565 c-4 -8 -12 -15 -19 -15 -16 0 -23 -43 -19 -127 3 -71 12
-88 50 -97 33 -9 59 11 43 30 -6 8 -17 14 -24 14 -7 0 -15 16 -17 36 -3 29 0
37 16 44 18 6 25 1 43 -34 35 -65 28 -98 -22 -108 -12 -2 -20 -11 -20 -23 0
-17 6 -20 38 -19 24 1 46 9 57 20 23 23 99 214 93 232 -3 6 -16 12 -28 12 -19
0 -27 -9 -41 -52 l-17 -53 -23 49 c-12 26 -26 52 -31 57 -14 14 -53 -19 -46
-38 4 -11 2 -14 -8 -11 -18 6 -19 29 -1 50 15 18 10 48 -8 48 -6 0 -13 -7 -16
-15z"/>
<path d="M4325 1571 c-3 -5 6 -22 19 -38 l25 -28 20 21 c15 17 17 24 8 34 -9
10 -9 11 1 6 6 -4 12 -2 12 3 0 14 -23 14 -37 0 -8 -8 -13 -8 -17 0 -9 13 -23
14 -31 2z"/>
<path d="M4412 1523 c-23 -29 -21 -43 9 -43 15 0 19 7 19 35 0 19 -1 35 -3 35
-2 0 -13 -12 -25 -27z"/>
<path d="M3340 1491 c5 -11 15 -23 21 -27 6 -3 3 5 -6 20 -20 30 -30 35 -15 7z"/>
<path d="M3510 1470 c0 -5 5 -10 11 -10 5 0 7 5 4 10 -3 6 -8 10 -11 10 -2 0
-4 -4 -4 -10z"/>
<path d="M3160 1417 c0 -15 23 -67 30 -67 5 0 12 10 16 23 l7 22 10 -22 c12
-27 23 -29 30 -5 2 9 8 25 12 35 4 9 3 17 -3 17 -5 0 -13 -10 -16 -22 l-6 -23
-13 23 -14 24 -16 -24 c-13 -18 -16 -20 -16 -6 -1 14 -21 38 -21 25z"/>
<path d="M3530 1386 c0 -19 5 -38 10 -41 6 -4 10 10 10 34 0 23 -4 41 -10 41
-5 0 -10 -15 -10 -34z"/>
<path d="M3280 1390 c-19 -12 -2 -43 26 -48 18 -4 18 -3 -1 12 -20 15 -20 15
3 16 14 0 22 5 20 13 -6 16 -29 20 -48 7z"/>
<path d="M3344 1385 c-10 -26 4 -45 31 -43 20 2 25 8 25 30 0 23 -4 28 -25 28
-14 0 -28 -7 -31 -15z m41 -4 c7 -12 -12 -24 -25 -16 -11 7 -4 25 10 25 5 0
11 -4 15 -9z"/>
<path d="M3420 1369 c0 -19 4 -28 11 -24 6 4 8 13 5 21 -3 8 -1 14 4 14 6 0
10 5 10 10 0 6 -7 10 -15 10 -10 0 -15 -10 -15 -31z"/>
<path d="M3467 1394 c-12 -13 -8 -42 8 -48 25 -9 46 5 43 28 -3 21 -37 34 -51
20z m38 -14 c3 -6 -1 -13 -10 -16 -19 -8 -30 0 -20 15 8 14 22 14 30 1z"/>
<path d="M3566 1384 c-9 -22 17 -49 39 -40 10 3 15 15 13 28 -4 29 -42 37 -52
12z m39 -24 c-5 -8 -11 -8 -17 -2 -6 6 -7 16 -3 22 5 8 11 8 17 2 6 -6 7 -16
3 -22z"/>
<path d="M3636 1385 c-3 -9 4 -25 16 -37 16 -16 17 -20 5 -15 -9 3 -17 2 -17
-3 0 -6 11 -10 25 -10 23 0 25 4 25 40 0 36 -3 40 -24 40 -13 0 -26 -7 -30
-15z m44 -16 c0 -5 -7 -9 -15 -9 -15 0 -20 12 -9 23 8 8 24 -1 24 -14z"/>
<path d="M3712 1370 c0 -19 2 -27 5 -17 2 9 2 25 0 35 -3 9 -5 1 -5 -18z"/>
<path d="M3744 1385 c-10 -24 4 -45 28 -44 17 1 18 2 6 6 -22 5 -24 23 -3 23
8 0 15 7 15 15 0 8 -9 15 -20 15 -11 0 -23 -7 -26 -15z"/>
<path d="M3810 1385 c0 -8 5 -15 10 -15 6 0 10 -5 10 -11 0 -5 -4 -7 -10 -4
-5 3 -10 1 -10 -4 0 -15 27 -14 36 1 4 6 -1 17 -10 24 -16 12 -16 13 1 17 14
4 14 5 -4 6 -14 1 -23 -5 -23 -14z"/>
<path d="M4375 1380 c3 -5 8 -10 11 -10 2 0 4 5 4 10 0 6 -5 10 -11 10 -5 0
-7 -4 -4 -10z"/>
<path d="M2584 1366 c-15 -12 -16 -16 -5 -29 16 -20 41 -11 41 13 0 26 -14 32
-36 16z"/>
<path d="M4408 1350 c2 -16 6 -30 8 -30 2 0 4 14 4 30 0 17 -4 30 -8 30 -5 0
-7 -13 -4 -30z"/>
<path d="M4380 1346 c0 -15 -8 -17 -55 -14 -39 2 -55 -1 -55 -9 0 -19 -17 -16
-29 5 -9 15 -10 15 -11 -5 0 -18 6 -23 24 -23 14 0 28 5 31 10 3 6 28 10 55
10 50 0 71 13 51 33 -8 8 -11 6 -11 -7z"/>
<path d="M4439 1355 c-8 -59 -3 -69 21 -39 11 12 10 18 -3 32 -10 9 -18 12
-18 7z"/>
<path d="M4496 1349 c3 -6 0 -15 -7 -20 -11 -7 -11 -9 2 -9 9 0 18 3 22 6 8 8
-3 34 -15 34 -5 0 -6 -5 -2 -11z"/>
<path d="M4240 1240 c0 -25 4 -30 25 -30 20 0 25 5 25 24 0 14 -4 27 -9 30 -4
3 -6 -6 -3 -19 3 -19 0 -25 -13 -25 -13 0 -16 6 -13 25 3 14 1 25 -3 25 -5 0
-9 -13 -9 -30z"/>
<path d="M4314 1248 c-4 -7 -3 -8 4 -4 8 5 12 -1 12 -16 0 -18 -2 -20 -10 -8
-6 9 -10 10 -10 3 0 -30 34 -21 36 9 2 20 -22 32 -32 16z"/>
<path d="M4444 1249 c-4 -7 -3 -9 4 -5 5 3 12 0 15 -6 2 -7 7 -10 11 -7 4 3 0
12 -8 18 -11 9 -16 9 -22 0z"/>
<path d="M4360 1245 c0 -5 5 -17 10 -25 5 -8 10 -10 10 -5 0 6 -5 17 -10 25
-5 8 -10 11 -10 5z"/>
<path d="M4390 1243 c0 -15 19 -37 26 -31 3 4 -1 14 -10 23 -9 9 -16 13 -16 8z"/>
<path d="M4493 1230 c1 -11 5 -20 9 -20 11 0 10 28 -1 35 -6 3 -9 -4 -8 -15z"/>
<path d="M5801 1152 c-517 -2 -667 -5 -673 -15 -6 -9 -8 -9 -8 1 0 10 -449 12
-2270 12 -1303 0 -2269 -4 -2265 -9 3 -5 -12 -9 -33 -9 -20 1 -68 -4 -107 -10
-38 -7 -137 -11 -220 -10 l-150 1 195 7 c122 4 203 11 215 18 17 11 16 11 -10
5 -33 -7 -431 -10 -455 -3 -13 4 -15 -64 -18 -568 l-2 -572 3400 0 3400 0 0
581 0 581 -167 -4 c-93 -1 -467 -4 -832 -6z m-5748 -39 c-7 -2 -19 -2 -25 0
-7 3 -2 5 12 5 14 0 19 -2 13 -5z m5058 -39 c-5 -21 -9 -30 -10 -19 -1 24 10
67 15 62 3 -2 0 -22 -5 -43z m789 31 c0 -8 -7 -15 -15 -15 -16 0 -20 12 -8 23
11 12 23 8 23 -8z m-691 -17 c0 -13 -3 -17 -6 -10 -2 6 -10 9 -16 5 -7 -4 -6
1 2 10 18 22 21 21 20 -5z m-53 -49 l-16 -34 6 35 c7 41 16 59 21 43 2 -6 -3
-26 -11 -44z m-59 -41 c-3 -7 -5 -2 -5 12 0 14 2 19 5 13 2 -7 2 -19 0 -25z
m122 -38 c-18 -11 -34 -1 -20 13 6 6 11 20 12 32 0 16 3 14 11 -9 8 -22 7 -30
-3 -36z m-105 6 c-5 -32 -4 -34 16 -29 21 6 20 4 -4 -21 -15 -14 -31 -26 -35
-26 -10 0 -21 -24 -21 -43 0 -7 4 -6 10 3 14 22 13 -3 -2 -35 -10 -22 -9 -28
3 -36 11 -6 11 -9 1 -9 -9 0 -11 -7 -7 -22 5 -18 4 -20 -4 -8 -9 13 -11 13
-11 -2 0 -10 4 -18 10 -18 5 0 6 -8 3 -17 -5 -14 -8 -14 -11 -2 -3 7 -9 16
-13 19 -4 3 -4 23 1 45 5 22 10 58 10 81 0 26 7 49 19 63 10 12 22 37 25 56 4
19 9 35 12 35 3 0 2 -15 -2 -34z m23 12 c-3 -8 -6 -5 -6 6 -1 11 2 17 5 13 3
-3 4 -12 1 -19z m543 -58 c0 -5 -4 -10 -10 -10 -5 0 -10 5 -10 10 0 6 5 10 10
10 6 0 10 -4 10 -10z m-2130 -20 c0 -5 -4 -10 -10 -10 -5 0 -10 5 -10 10 0 6
5 10 10 10 6 0 10 -4 10 -10z m-10 -326 c22 -9 40 -20 40 -25 0 -5 -2 -9 -4
-9 -2 0 -12 -3 -20 -6 -13 -5 -15 -2 -9 12 6 17 5 17 -9 6 -12 -10 -22 -11
-36 -3 -11 6 -22 7 -26 4 -3 -3 -6 3 -6 15 0 26 16 28 70 6z m670 6 c0 -5 -2
-10 -4 -10 -3 0 -8 5 -11 10 -3 6 -1 10 4 10 6 0 11 -4 11 -10z m30 0 c0 -5
-4 -10 -10 -10 -5 0 -10 5 -10 10 0 6 5 10 10 10 6 0 10 -4 10 -10z m-754 -54
c16 1 20 -3 17 -16 -5 -20 24 -34 51 -24 18 7 19 4 10 -20 -3 -9 -15 -16 -26
-16 -12 0 -17 4 -12 12 4 7 3 8 -5 4 -17 -11 -3 -26 23 -26 13 0 23 -6 23 -15
0 -8 -4 -15 -9 -15 -4 0 -8 5 -8 10 0 6 -3 10 -7 10 -5 0 -8 -31 -8 -69 0 -49
3 -67 12 -64 7 3 15 14 19 25 3 11 8 17 11 15 15 -16 -37 -66 -84 -81 -18 -6
-23 -3 -24 11 -1 17 -1 17 -6 0 -3 -11 -10 -16 -20 -13 -8 3 -19 6 -23 6 -13
0 -70 57 -70 71 0 6 -8 27 -17 46 -15 33 -15 37 3 70 10 20 30 43 44 52 14 8
28 20 31 25 4 5 11 6 17 2 6 -3 14 -1 18 5 3 6 9 7 13 2 3 -5 16 -8 27 -7z
m724 0 c0 -7 -9 -16 -20 -19 -13 -3 -20 0 -20 10 0 8 4 12 9 8 5 -3 12 -1 16
5 9 14 15 12 15 -4z m50 -6 c24 -24 25 -34 3 -51 -15 -12 -16 -12 -10 4 4 11
3 16 -3 12 -6 -3 -10 2 -11 12 0 10 -3 13 -5 6 -7 -16 15 -55 27 -48 6 4 8
-10 5 -37 -4 -30 -3 -34 2 -13 l7 30 24 -34 c14 -20 26 -53 29 -81 l4 -48 40
5 c38 4 40 3 35 -19 -4 -14 -13 -41 -22 -61 -14 -35 -16 -36 -41 -25 -21 10
-28 9 -38 -2 -16 -21 -166 -21 -183 0 -10 13 -15 13 -34 2 -18 -12 -23 -12
-30 0 -5 7 -9 16 -9 21 0 10 18 9 22 -3 2 -6 19 -4 43 5 22 8 50 14 63 15 13
0 20 4 17 10 -3 6 1 10 9 10 9 0 16 6 16 13 0 8 4 7 10 -3 5 -8 10 -11 10 -6
0 6 6 2 13 -8 18 -24 53 -17 49 9 -2 17 -1 17 7 5 12 -17 63 -21 73 -6 19 28
3 31 -152 31 -88 0 -160 4 -160 8 0 5 6 7 14 4 10 -4 15 7 20 40 6 45 33 103
48 103 4 0 8 -13 8 -29 0 -24 3 -28 20 -24 11 3 20 10 20 15 0 5 5 6 10 3 6
-4 10 14 10 47 0 41 -3 49 -11 38 -9 -12 -10 -12 -5 3 3 11 9 30 12 43 7 29
18 30 44 4z m-670 0 c0 -5 -4 -10 -10 -10 -5 0 -10 5 -10 10 0 6 5 10 10 10 6
0 10 -4 10 -10z m-714 -24 c-1 -8 -8 -22 -16 -31 -13 -16 -15 -16 -27 1 -11
16 -10 20 9 31 30 16 37 16 34 -1z m-69 -101 c2 -69 0 -75 -18 -75 -18 0 -20
6 -18 55 2 34 7 56 16 59 18 7 17 26 -2 26 -8 0 -15 -5 -15 -11 0 -5 -5 -7
-11 -3 -13 8 7 24 31 24 12 0 16 -15 17 -75z m822 51 c7 -8 8 -17 3 -20 -6 -3
-12 3 -15 14 -6 24 -4 25 12 6z m-25 -64 c-6 -4 -14 -14 -17 -22 -4 -10 -6 -8
-6 8 -1 15 5 22 17 22 10 0 13 -3 6 -8z m-284 -26 c0 -50 74 -124 128 -125 24
-1 32 -31 8 -31 -8 0 -21 -9 -29 -20 -19 -28 -59 -16 -51 15 7 27 -21 47 -53
39 -11 -3 -25 1 -33 10 -11 14 -10 19 2 34 20 23 12 51 -18 62 -38 15 -31 40
11 40 30 0 35 -3 35 -24z m740 -87 c0 -5 -4 -7 -10 -4 -12 8 -13 3 0 -29 5
-14 6 -26 1 -26 -5 0 -12 7 -15 16 -11 28 -6 54 9 54 8 0 15 -5 15 -11z m223
-27 c4 9 6 9 6 1 1 -19 -20 -27 -30 -12 -14 22 -10 36 5 16 11 -14 15 -15 19
-5z m-177 -4 c7 9 15 14 18 11 3 -3 -6 -16 -22 -30 -15 -13 -24 -20 -19 -15 4
5 -1 19 -10 30 -17 20 -17 20 2 4 17 -16 19 -16 31 0z m60 -14 c-30 -21 -45
-16 -16 6 14 10 27 16 30 13 3 -2 -4 -11 -14 -19z m-1379 -25 c59 -10 87 -29
44 -29 -33 0 -121 23 -121 32 0 10 1 10 77 -3z"/>
<path d="M3440 510 c0 -5 5 -10 10 -10 6 0 10 5 10 10 0 6 -4 10 -10 10 -5 0
-10 -4 -10 -10z"/>
<path d="M3475 510 c3 -5 8 -10 11 -10 2 0 4 5 4 10 0 6 -5 10 -11 10 -5 0 -7
-4 -4 -10z"/>
<path d="M3385 483 c-28 -29 -45 -64 -45 -89 0 -11 8 -14 28 -12 21 2 27 8 27
27 0 15 9 28 23 34 23 10 27 23 16 51 -9 23 -19 20 -49 -11z"/>
<path d="M3428 433 c-10 -2 -18 -9 -18 -14 0 -13 13 -11 36 6 19 14 14 17 -18
8z"/>
<path d="M3505 420 c3 -5 8 -10 11 -10 2 0 4 5 4 10 0 6 -5 10 -11 10 -5 0 -7
-4 -4 -10z"/>
<path d="M3456 403 c-6 -14 -5 -15 5 -6 7 7 10 15 7 18 -3 3 -9 -2 -12 -12z"/>
<path d="M4315 200 c3 -5 10 -10 16 -10 5 0 9 5 9 10 0 6 -7 10 -16 10 -8 0
-12 -4 -9 -10z"/>
</g>
</svg>
