<?xml version="1.0" encoding="UTF-8"?>
<svg id="Layer_2" data-name="Layer 2" xmlns="http://www.w3.org/2000/svg" viewBox="0 0 46.909965 46.953492">
  <defs>
    <style>
      .cls-1 {
        fill: #f9b911;
        fill-rule: evenodd;
      }
    </style>
  </defs>
  <g id="Layer_1-2" data-name="Layer 1">
    <g id="target--shop-bullseye-arrow-target">
      <path id="Union" class="cls-1" d="m38.458461,1.274487c-.223625-.899918-1.134434-1.448161-2.034351-1.224537-.296265.07362-.566849.226618-.78265.442537l-6.714001,6.714c-.416637.417479-.583664,1.022955-.440001,1.595l1.209,4.848c-.015873.01546-.03154.031128-.047001.047l-8.026995,8.027001c-1.015657.949924-1.068945,2.543343-.11902,3.559s2.543343,1.068945,3.559.11902c.040989-.038336.080685-.078032.11902-.11902l8.034002-8.024c.015881-.016462.031551-.033131.047001-.049999l4.843998,1.212c.572044.143665,1.177521-.023363,1.595001-.440001l6.714001-6.714001c.657196-.654181.659637-1.717262.005459-2.374458-.216774-.217772-.489151-.371881-.78746-.445541l-5.737-1.43-1.432999-5.741-.005005-.001Zm-13.993,1.276c.096121,1.386979-.950056,2.589388-2.337,2.686C12.010534,5.93714,4.376325,14.707332,5.076978,24.825259c.700653,10.117926,9.470844,17.752134,19.588771,17.051481,9.071863-.628212,16.317778-7.801205,17.037714-16.866253.11018-1.386787,1.323711-2.42168,2.710499-2.311499,1.386787.11018,2.42168,1.323711,2.311501,2.710499h0c-1.02515,12.882185-12.299271,22.494211-25.181458,21.469061C8.66182,45.853398-.950206,34.579277.074944,21.69709.993867,10.149778,10.223464,1.012845,21.779462.210487c1.386978-.096122,2.58939.950055,2.686001,2.337l-.000002.003Zm-2.256001,11.074999c.507086,1.294905-.131567,2.755707-1.426472,3.262794-.000177.000069-.000353.000137-.000528.000206-3.659168,1.435337-5.461938,5.565248-4.026602,9.224417,1.435337,3.659168,5.56525,5.461939,9.224417,4.026602,1.850826-.726002,3.313608-2.193073,4.034185-4.046019.490715-1.301197,1.943348-1.958223,3.244545-1.467508s1.958221,1.943346,1.467506,3.244543c-.00618.016388-.012531.032711-.019051.048965-2.43264,6.255566-9.475821,9.354656-15.731386,6.922016-6.255564-2.43264-9.354656-9.475821-6.922016-15.731384,1.231343-3.166416,3.73189-5.672848,6.895403-6.911632,1.29426-.505177,2.753117.133408,3.259998,1.426999Z"/>
    </g>
  </g>
</svg>