<?xml version="1.0" encoding="UTF-8"?>
<svg id="Layer_2" data-name="Layer 2" xmlns="http://www.w3.org/2000/svg" viewBox="0 0 45.570712 45.109375">
  <g id="Layer_1-2" data-name="Layer 1">
    <g>
      <path d="m22.797852,45.109375c-.119141,0-.239258-.021484-.353516-.064453L.646484,36.810547c-.388672-.147461-.646484-.519531-.646484-.935547V9.234375c0-.328125.161133-.635742.431641-.822266.268555-.1875.615234-.228516.921875-.113281l21.797852,8.233398c.388672.147461.646484.519531.646484.935547v26.641602c0,.328125-.161133.635742-.431641.822266-.168945.117188-.368164.177734-.568359.177734ZM2,35.183594l19.797852,7.479492v-24.503906L2,10.680664v24.50293Z"/>
      <path d="m22.75,45.109375c-.200195,0-.399414-.060547-.568359-.177734-.270508-.186523-.431641-.494141-.431641-.822266v-26.641602c0-.416016.257812-.788086.646484-.935547l21.797852-8.233398c.307617-.114258.65332-.073242.921875.113281.270508.186523.431641.494141.431641.822266v26.640625c0,.416016-.257812.788086-.646484.935547l-21.797852,8.234375c-.114258.042969-.234375.064453-.353516.064453Zm1-26.950195v24.503906l19.797852-7.479492V10.680664l-19.797852,7.478516Z"/>
      <path d="m22.773438,18.467773c-.120117,0-.240234-.021484-.354492-.064453L.668945,10.169922c-.388672-.147461-.645508-.520508-.645508-.935547,0-.416016.257812-.788086.646484-.935547L22.466797.064453c.228516-.085938.479492-.085938.708008,0l21.75,8.234375c.388672.147461.645508.520508.645508.935547,0,.416016-.257812.788086-.646484.935547l-21.796875,8.233398c-.114258.042969-.233398.064453-.353516.064453ZM3.850586,9.235352l18.922852,7.163086,18.969727-7.165039L22.820312,2.069336,3.850586,9.235352Z"/>
      <path d="m22.773438,25.976562c-.120117,0-.240234-.021484-.354492-.064453L.668945,17.677734c-.515625-.196289-.776367-.773438-.581055-1.290039.195312-.515625.774414-.772461,1.290039-.581055l21.395508,8.100586,21.443359-8.100586c.517578-.194336,1.09375.06543,1.289062.582031s-.06543,1.09375-.582031,1.289062l-21.796875,8.234375c-.114258.042969-.233398.064453-.353516.064453Z"/>
      <path d="m7.423828,27.1875c-.118164,0-.237305-.020508-.353516-.064453l-6.400391-2.421875c-.516602-.195312-.777344-.772461-.582031-1.289062.195312-.517578.776367-.776367,1.289062-.582031l6.400391,2.421875c.516602.195312.777344.772461.582031,1.289062-.151367.400391-.532227.646484-.935547.646484Z"/>
      <path d="m22.773438,32.999023c-.118164,0-.237305-.020508-.354492-.064453l-6.572266-2.488281c-.515625-.196289-.776367-.773438-.581055-1.290039.196289-.516602.773438-.775391,1.290039-.581055l6.572266,2.488281c.515625.196289.776367.773438.581055,1.290039-.151367.399414-.532227.645508-.935547.645508Z"/>
      <path d="m38.124023,27.1875c-.40332,0-.78418-.246094-.935547-.646484-.195312-.516602.06543-1.09375.582031-1.289062l6.400391-2.421875c.512695-.194336,1.09375.064453,1.289062.582031.195312.516602-.06543,1.09375-.582031,1.289062l-6.400391,2.421875c-.116211.043945-.235352.064453-.353516.064453Z"/>
      <path d="m22.773438,32.999023c-.40332,0-.78418-.246094-.935547-.645508-.195312-.516602.06543-1.09375.581055-1.290039l6.572266-2.488281c.518555-.194336,1.094727.064453,1.290039.581055s-.06543,1.09375-.581055,1.290039l-6.572266,2.488281c-.117188.043945-.236328.064453-.354492.064453Z"/>
    </g>
  </g>
</svg>