<?xml version="1.0" encoding="UTF-8"?>
<svg id="Layer_2" data-name="Layer 2" xmlns="http://www.w3.org/2000/svg" viewBox="0 0 21.725708 21.725586">
  <defs>
    <style>
      .cls-1 {
        fill: #fff;
      }
    </style>
  </defs>
  <g id="Layer_1-2" data-name="Layer 1">
    <path class="cls-1" d="m0,0v21.725586h21.725708V0H0Zm7.684082,16.234863s0,.317871-.317749.317871h-2.542603s-.317749,0-.317749-.317871V7.971191s0-.317871.317749-.317871h2.542603s.317749,0,.317749.317871v8.263672Zm-1.601685-9.853027h.000366-.000671.000305-.000305c-.874146-.003906-1.579773-.715332-1.576111-1.589355,0-.004395,0-.008789.000061-.013184.007324-.87793.724792-1.583496,1.6026-1.576172.877747.007324,1.583374.724609,1.57605,1.602539-.007324.877441-.72467,1.583008-1.602295,1.576172Zm11.137329,9.854004c0,.175293-.142273.317383-.317749.317383h-1.907104v-.000488c-.175537,0-.317749-.14209-.317749-.317871v-4.768066c-.000122-.877441-.711548-1.588867-1.589233-1.588867-.877747-.000488-1.589478.711426-1.589539,1.588867v4.768066c0,.175781-.142273.317871-.317749.317871h-1.907166c-.175476,0-.317688-.14209-.317688-.317871V7.971191c0-.175781.142212-.317871.317688-.317871h1.907166c.175476,0,.317749.14209.317749.317871.001038.10498.066711.19873.165161.235352.097595.044922.213013.021973.285889-.057129.528442-.544922,1.263123-.84082,2.021912-.813965,1.894531,0,3.248413,1.163086,3.248413,3.560547v5.339844Z"/>
  </g>
</svg>