<?xml version="1.0" encoding="UTF-8"?>
<svg id="Layer_2" data-name="Layer 2" xmlns="http://www.w3.org/2000/svg" viewBox="0 0 38.478551 38.478503">
  <g id="Layer_1-2" data-name="Layer 1">
    <path d="m38.478551,37.104782c-.028945-2.761417-.608072-5.48936-1.703527-8.024362-1.236061-2.500801-5.222431-3.957691-10.74599-5.991025l-1.29342-.470333c-.412564-1.033062-.47106-2.17374-.166337-3.243586,2.455457-2.638223,3.674246-6.195537,3.352564-9.785246C28.31706,4.704039,24.676409.422611,19.790217.027392c-.183787-.014866-.367995-.024001-.552351-.027392-4.886774.10462-8.763475,4.150944-8.658855,9.037718.003969.185388.013763.370607.029369.55538-.31995,3.532725.868657,7.036046,3.272265,9.64472.314332,1.094715.266041,2.261751-.13766,3.326754l-1.402399.521957c-5.497749,2.033334-9.509929,3.490224-10.74599,5.991025C.536159,31.621123-.005869,34.349787.000048,37.104782c0,.758685.615035,1.37372,1.37372,1.37372h35.728196c.758685,0,1.37372-.615035,1.37372-1.37372h.002866Z"/>
  </g>
</svg>