<?xml version="1.0" encoding="UTF-8"?>
<svg id="Layer_2" data-name="Layer 2" xmlns="http://www.w3.org/2000/svg" viewBox="0 0 314.458008 248.089844">
  <defs>
    <style>
      .cls-1 {
        fill: #fff;
      }
    </style>
  </defs>
  <g id="Layer_1-2" data-name="Layer 1">
    <g>
      <path class="cls-1" d="m232.300781,156.154297H80.556641V9.916016h151.744141v146.238281Zm-149.744141-2h147.744141V11.916016H82.556641v142.238281Z"/>
      <path class="cls-1" d="m192.040039,93.606445c-5.829102,0-10.571289-4.742188-10.571289-10.571289s4.742188-10.572266,10.571289-10.572266,10.572266,4.743164,10.572266,10.572266-4.743164,10.571289-10.572266,10.571289Zm0-19.143555c-4.726562,0-8.571289,3.845703-8.571289,8.572266s3.844727,8.571289,8.571289,8.571289,8.572266-3.844727,8.572266-8.571289-3.845703-8.572266-8.572266-8.572266Z"/>
      <path class="cls-1" d="m161.310547,74.694336h-66.869141v-21.765625h66.869141v21.765625Zm-64.869141-2h62.869141v-17.765625h-62.869141v17.765625Z"/>
      <path class="cls-1" d="m157.228516,160.285156c-31.368164,0-60.865234-1.527344-83.057617-4.301758-23.375977-2.921875-35.228516-6.743164-35.228516-11.358398s11.852539-8.436523,35.228516-11.359375c22.193359-2.774414,51.689453-4.301758,83.057617-4.301758s60.865234,1.527344,83.058594,4.301758c23.375977,2.922852,35.228516,6.744141,35.228516,11.359375s-11.852539,8.436523-35.228516,11.358398c-22.192383,2.774414-51.69043,4.301758-83.058594,4.301758Zm0-29.321289c-31.287109,0-60.696289,1.522461-82.80957,4.286133-24.708984,3.088867-33.476562,6.980469-33.476562,9.375,0,2.393555,8.767578,6.285156,33.476562,9.374023,22.112305,2.763672,51.521484,4.286133,82.80957,4.286133s60.697266-1.522461,82.810547-4.286133c24.708984-3.088867,33.476562-6.980469,33.476562-9.374023,0-2.394531-8.767578-6.286133-33.476562-9.375-22.113281-2.763672-51.522461-4.286133-82.810547-4.286133Z"/>
      <path class="cls-1" d="m157.228516,192.064453c-31.368164,0-60.865234-1.527344-83.057617-4.301758-23.375977-2.921875-35.228516-6.744141-35.228516-11.359375s11.852539-8.436523,35.228516-11.358398c22.192383-2.774414,51.689453-4.301758,83.057617-4.301758s60.866211,1.527344,83.058594,4.301758c23.375977,2.921875,35.228516,6.743164,35.228516,11.358398s-11.852539,8.4375-35.228516,11.359375c-22.192383,2.774414-51.689453,4.301758-83.058594,4.301758Zm0-29.321289c-31.288086,0-60.697266,1.522461-82.80957,4.286133-24.708984,3.088867-33.476562,6.980469-33.476562,9.374023,0,2.394531,8.767578,6.286133,33.476562,9.375,22.112305,2.763672,51.521484,4.286133,82.80957,4.286133,31.289062,0,60.698242-1.522461,82.810547-4.286133,24.708984-3.088867,33.476562-6.980469,33.476562-9.375,0-2.393555-8.767578-6.285156-33.476562-9.374023-22.113281-2.763672-51.522461-4.286133-82.810547-4.286133Z"/>
      <path class="cls-1" d="m157.228516,202.12207C79.942383,202.12207,0,193.495117,0,179.058594s79.942383-23.063477,157.228516-23.063477c77.287109,0,157.229492,8.626953,157.229492,23.063477s-79.942383,23.063477-157.229492,23.063477Zm0-44.126953c-92.853516,0-155.228516,10.891602-155.228516,21.063477s62.375,21.063477,155.228516,21.063477c92.854492,0,155.229492-10.891602,155.229492-21.063477s-62.375-21.063477-155.229492-21.063477Z"/>
      <path class="cls-1" d="m157.228516,248.089844C79.942383,248.089844,0,239.462891,0,225.026367s79.942383-23.063477,157.228516-23.063477c77.287109,0,157.229492,8.626953,157.229492,23.063477s-79.942383,23.063477-157.229492,23.063477Zm0-44.126953c-92.853516,0-155.228516,10.891602-155.228516,21.063477s62.375,21.063477,155.228516,21.063477c92.854492,0,155.229492-10.891602,155.229492-21.063477s-62.375-21.063477-155.229492-21.063477Z"/>
      <rect class="cls-1" y="179.058594" width="2" height="45.967773"/>
      <rect class="cls-1" x="312.458008" y="179.058594" width="2" height="45.967773"/>
      <rect class="cls-1" x="38.942383" y="144.625" width="2" height="31.77832"/>
      <rect class="cls-1" x="273.515625" y="144.625" width="2" height="31.77832"/>
      <polygon class="cls-1" points="231.082031 11.891602 186.966797 2 115.109375 2 81.84082 11.875 81.272461 9.957031 114.818359 0 187.333008 .032227 231.519531 9.94043 231.082031 11.891602"/>
    </g>
  </g>
</svg>