<svg width="29" height="30" viewBox="0 0 29 30" fill="none" xmlns="http://www.w3.org/2000/svg">
<path fill-rule="evenodd" clip-rule="evenodd" d="M3.33501 25.0965L0.418341 19.9065C0.0158411 19.1925 0.256466 18.27 0.950633 17.8575L2.95147 16.668C2.79416 15.5619 2.79416 14.4381 2.95147 13.332L0.950633 12.1425C0.617118 11.9422 0.374046 11.6145 0.274349 11.2307C0.174653 10.8469 0.226407 10.4382 0.418341 10.0935L3.33501 4.9035C3.43075 4.73289 3.55825 4.58338 3.71023 4.46351C3.8622 4.34364 4.03566 4.25576 4.22068 4.20491C4.40571 4.15406 4.59866 4.14123 4.78851 4.16715C4.97836 4.19308 5.16138 4.25725 5.32709 4.356L7.36147 5.565C8.20465 4.88238 9.1344 4.32122 10.125 3.897V1.5C10.125 1.10218 10.2787 0.720644 10.5521 0.43934C10.8256 0.158035 11.1966 0 11.5833 0H17.4167C17.8034 0 18.1744 0.158035 18.4479 0.43934C18.7214 0.720644 18.875 1.10218 18.875 1.5V3.897C19.8656 4.32032 20.795 4.88157 21.6371 5.565L23.6729 4.356C24.0077 4.15697 24.4056 4.10284 24.7792 4.20551C25.1527 4.30818 25.4714 4.55925 25.665 4.9035L28.5817 10.0935C28.9842 10.8075 28.7436 11.73 28.0494 12.1425L26.0486 13.332C26.2068 14.438 26.2078 15.5617 26.0515 16.668L28.0523 17.8575C28.3858 18.0578 28.6289 18.3855 28.7286 18.7693C28.8283 19.1531 28.7765 19.5618 28.5846 19.9065L25.6679 25.0965C25.2669 25.809 24.3715 26.0565 23.6758 25.644L21.64 24.435C20.7968 25.1176 19.8671 25.6788 18.8765 26.103V28.5C18.8765 28.8978 18.7228 29.2794 18.4493 29.5607C18.1758 29.842 17.8049 30 17.4181 30H11.5848C11.198 30 10.8271 29.842 10.5536 29.5607C10.2801 29.2794 10.1265 28.8978 10.1265 28.5V26.103C9.14355 25.683 8.20876 25.1205 7.36292 24.435L5.32709 25.644C4.99232 25.843 4.5944 25.8972 4.22084 25.7945C3.84728 25.6918 3.52864 25.4408 3.33501 25.0965ZM20.3333 15C20.3333 11.691 17.7171 9 14.5 9C11.2829 9 8.66667 11.691 8.66667 15C8.66667 18.309 11.2829 21 14.5 21C17.7171 21 20.3333 18.309 20.3333 15Z" fill="#F5F5F5"/>
</svg>
