<?xml version="1.0" encoding="UTF-8"?>
<svg id="Layer_2" data-name="Layer 2" xmlns="http://www.w3.org/2000/svg" viewBox="0 0 46.678005 41.786643">
  <defs>
    <style>
      .cls-1 {
        fill: #f9b911;
        fill-rule: evenodd;
      }
    </style>
  </defs>
  <g id="Layer_1-2" data-name="Layer 1">
    <g id="diamond-2--diamond-money-payment-finance-wealth-jewelry">
      <path id="Subtract" class="cls-1" d="m21.352,0h4.067999l5.764,12.388h-15.619999S21.352,0,21.352,0Zm-10.421,12.388L16.719001,0h-5.647001c-1.669716.045649-3.218975.880008-4.176,2.249L.796,10.703l-.01.013c-.360379.508112-.626603,1.0768-.786,1.679h10.931v-.007ZM.692,16.585h10.152l6.449,20.683002L1.064,17.088001c-.134122-.158089-.258678-.324051-.373-.497l.001-.006001Zm14.545999,0h16.271998l-7.822001,25.188999c-.196686.014057-.394035.016396-.591.007l-7.856-25.191999-.002998-.004Zm20.666999,0l-6.365,20.489002,16.073999-19.988001c.134121-.158089.258678-.324051.373001-.497h-10.081001l-.000999-.004002Zm10.77-4.196c-.158619-.600527-.423462-1.167809-.782001-1.675l-.009998-.013-6.099998-8.447C38.825977.88501,37.276717.05065,35.607002.005001v-.003h-5.554001l5.761002,12.388h10.864002l-.003006-.001Z"/>
    </g>
  </g>
</svg>